<svg viewBox="0 0 100 100" version="1.1" id="svg264" xmlns="http://www.w3.org/2000/svg" xmlns:svg="http://www.w3.org/2000/svg">
  <path style="fill:#2c2e34"
    d="m 20,0 h 60 c 11.08,0 20,8.92 20,20 v 60 c 0,11.08 -8.92,20 -20,20 H 20 C 8.92,100 0,91.08 0,80 V 20 C 0,8.92 8.92,0 20,0 Z" />
  <g style="fill:#9ed072">
    <path
      d="m 69.390625,69.4375 q -3.3125,1.71875 -6.90625,2.59375 -3.59375,0.875 -7.5,0.875 -11.65625,0 -18.46875,-6.5 -6.8125,-6.53125 -6.8125,-17.6875 0,-11.1875 6.8125,-17.6875 6.8125,-6.53125 18.46875,-6.53125 3.90625,0 7.5,0.875 3.59375,0.875 6.90625,2.59375 V 37.625 q -3.34375,-2.28125 -6.59375,-3.34375 -3.25,-1.0625 -6.84375,-1.0625 -6.4375,0 -10.125,4.125 -3.6875,4.125 -3.6875,11.375 0,7.21875 3.6875,11.34375 3.6875,4.125 10.125,4.125 3.59375,0 6.84375,-1.0625 3.25,-1.0625 6.59375,-3.34375 z" />
  </g>
</svg>